<svg width="17" height="17" viewBox="0 0 17 17" fill="none" xmlns="http://www.w3.org/2000/svg">
<path d="M3.8875 12.325C4.525 11.8375 5.2375 11.4531 6.025 11.1719C6.8125 10.8906 7.6375 10.75 8.5 10.75C9.3625 10.75 10.1875 10.8906 10.975 11.1719C11.7625 11.4531 12.475 11.8375 13.1125 12.325C13.55 11.8125 13.8906 11.2313 14.1344 10.5813C14.3781 9.93125 14.5 9.2375 14.5 8.5C14.5 6.8375 13.9156 5.42188 12.7469 4.25313C11.5781 3.08438 10.1625 2.5 8.5 2.5C6.8375 2.5 5.42188 3.08438 4.25313 4.25313C3.08438 5.42188 2.5 6.8375 2.5 8.5C2.5 9.2375 2.62187 9.93125 2.86562 10.5813C3.10938 11.2313 3.45 11.8125 3.8875 12.325ZM8.5 9.25C7.7625 9.25 7.14062 8.99688 6.63438 8.49063C6.12813 7.98438 5.875 7.3625 5.875 6.625C5.875 5.8875 6.12813 5.26562 6.63438 4.75938C7.14062 4.25313 7.7625 4 8.5 4C9.2375 4 9.85938 4.25313 10.3656 4.75938C10.8719 5.26562 11.125 5.8875 11.125 6.625C11.125 7.3625 10.8719 7.98438 10.3656 8.49063C9.85938 8.99688 9.2375 9.25 8.5 9.25ZM8.5 16C7.4625 16 6.4875 15.8031 5.575 15.4094C4.6625 15.0156 3.86875 14.4813 3.19375 13.8063C2.51875 13.1313 1.98438 12.3375 1.59063 11.425C1.19687 10.5125 1 9.5375 1 8.5C1 7.4625 1.19687 6.4875 1.59063 5.575C1.98438 4.6625 2.51875 3.86875 3.19375 3.19375C3.86875 2.51875 4.6625 1.98438 5.575 1.59063C6.4875 1.19687 7.4625 1 8.5 1C9.5375 1 10.5125 1.19687 11.425 1.59063C12.3375 1.98438 13.1313 2.51875 13.8063 3.19375C14.4813 3.86875 15.0156 4.6625 15.4094 5.575C15.8031 6.4875 16 7.4625 16 8.5C16 9.5375 15.8031 10.5125 15.4094 11.425C15.0156 12.3375 14.4813 13.1313 13.8063 13.8063C13.1313 14.4813 12.3375 15.0156 11.425 15.4094C10.5125 15.8031 9.5375 16 8.5 16Z" fill="white" stroke="#BFBFBF" stroke-opacity="0.35" stroke-width="0.025"/>
</svg>
