<svg width="16" height="16" viewBox="0 0 16 16" fill="none" xmlns="http://www.w3.org/2000/svg">
<path d="M6.08458 15L5.80597 12.76C5.65506 12.7017 5.51285 12.6317 5.37935 12.55C5.24585 12.4683 5.11526 12.3808 4.98756 12.2875L2.91542 13.1625L1 9.8375L2.79353 8.4725C2.78192 8.39083 2.77612 8.31208 2.77612 8.23625V7.76375C2.77612 7.68792 2.78192 7.60917 2.79353 7.5275L1 6.1625L2.91542 2.8375L4.98756 3.7125C5.11526 3.61917 5.24876 3.53167 5.38806 3.45C5.52736 3.36833 5.66667 3.29833 5.80597 3.24L6.08458 1H9.91542L10.194 3.24C10.3449 3.29833 10.4871 3.36833 10.6206 3.45C10.7541 3.53167 10.8847 3.61917 11.0124 3.7125L13.0846 2.8375L15 6.1625L13.2065 7.5275C13.2181 7.60917 13.2239 7.68792 13.2239 7.76375V8.23625C13.2239 8.31208 13.2123 8.39083 13.1891 8.4725L14.9826 9.8375L13.0672 13.1625L11.0124 12.2875C10.8847 12.3808 10.7512 12.4683 10.6119 12.55C10.4726 12.6317 10.3333 12.7017 10.194 12.76L9.91542 15H6.08458ZM8.03483 10.45C8.70813 10.45 9.28275 10.2108 9.75871 9.7325C10.2347 9.25417 10.4726 8.67667 10.4726 8C10.4726 7.32333 10.2347 6.74583 9.75871 6.2675C9.28275 5.78917 8.70813 5.55 8.03483 5.55C7.34992 5.55 6.77239 5.78917 6.30224 6.2675C5.83209 6.74583 5.59701 7.32333 5.59701 8C5.59701 8.67667 5.83209 9.25417 6.30224 9.7325C6.77239 10.2108 7.34992 10.45 8.03483 10.45Z" fill="white" stroke="#BFBFBF" stroke-opacity="0.35" stroke-width="0.025"/>
</svg>
