<svg width="46" height="45" viewBox="0 0 46 45" fill="none" xmlns="http://www.w3.org/2000/svg">
<g filter="url(#filter0_d_29_1012)">
<path d="M33.7667 34.875L24.8417 26.2125C24.1333 26.7625 23.3187 27.1979 22.3979 27.5188C21.4771 27.8396 20.4972 28 19.4583 28C16.8847 28 14.7066 27.1349 12.924 25.4047C11.1413 23.6745 10.25 21.5604 10.25 19.0625C10.25 16.5646 11.1413 14.4505 12.924 12.7203C14.7066 10.9901 16.8847 10.125 19.4583 10.125C22.0319 10.125 24.2101 10.9901 25.9927 12.7203C27.7753 14.4505 28.6667 16.5646 28.6667 19.0625C28.6667 20.0708 28.5014 21.0219 28.1708 21.9156C27.8403 22.8094 27.3917 23.6 26.825 24.2875L35.75 32.95L33.7667 34.875ZM19.4583 25.25C21.2292 25.25 22.7344 24.6484 23.974 23.4453C25.2135 22.2422 25.8333 20.7812 25.8333 19.0625C25.8333 17.3438 25.2135 15.8828 23.974 14.6797C22.7344 13.4766 21.2292 12.875 19.4583 12.875C17.6875 12.875 16.1823 13.4766 14.9427 14.6797C13.7031 15.8828 13.0833 17.3438 13.0833 19.0625C13.0833 20.7812 13.7031 22.2422 14.9427 23.4453C16.1823 24.6484 17.6875 25.25 19.4583 25.25Z" fill="#FEF7FF" fill-opacity="0.9"/>
</g>
<defs>
<filter id="filter0_d_29_1012" x="-4" y="-4" width="54" height="53" filterUnits="userSpaceOnUse" color-interpolation-filters="sRGB">
<feFlood flood-opacity="0" result="BackgroundImageFix"/>
<feColorMatrix in="SourceAlpha" type="matrix" values="0 0 0 0 0 0 0 0 0 0 0 0 0 0 0 0 0 0 127 0" result="hardAlpha"/>
<feOffset/>
<feGaussianBlur stdDeviation="5"/>
<feComposite in2="hardAlpha" operator="out"/>
<feColorMatrix type="matrix" values="0 0 0 0 1 0 0 0 0 1 0 0 0 0 1 0 0 0 0.29 0"/>
<feBlend mode="normal" in2="BackgroundImageFix" result="effect1_dropShadow_29_1012"/>
<feBlend mode="normal" in="SourceGraphic" in2="effect1_dropShadow_29_1012" result="shape"/>
</filter>
</defs>
</svg>
