<svg width="15" height="15" viewBox="0 0 15 15" fill="none" xmlns="http://www.w3.org/2000/svg">
<path d="M7.5 7.5C6.60625 7.5 5.84115 7.18177 5.20469 6.54531C4.56823 5.90885 4.25 5.14375 4.25 4.25C4.25 3.35625 4.56823 2.59115 5.20469 1.95469C5.84115 1.31823 6.60625 1 7.5 1C8.39375 1 9.15885 1.31823 9.79531 1.95469C10.4318 2.59115 10.75 3.35625 10.75 4.25C10.75 5.14375 10.4318 5.90885 9.79531 6.54531C9.15885 7.18177 8.39375 7.5 7.5 7.5ZM1 14V11.725C1 11.2646 1.11849 10.8414 1.35547 10.4555C1.59245 10.0695 1.90729 9.775 2.3 9.57187C3.13958 9.15208 3.99271 8.83724 4.85938 8.62734C5.72604 8.41745 6.60625 8.3125 7.5 8.3125C8.39375 8.3125 9.27396 8.41745 10.1406 8.62734C11.0073 8.83724 11.8604 9.15208 12.7 9.57187C13.0927 9.775 13.4076 10.0695 13.6445 10.4555C13.8815 10.8414 14 11.2646 14 11.725V14H1ZM2.625 12.375H12.375V11.725C12.375 11.576 12.3378 11.4406 12.2633 11.3188C12.1888 11.1969 12.0906 11.1021 11.9688 11.0344C11.2375 10.6687 10.4995 10.3945 9.75469 10.2117C9.0099 10.0289 8.25833 9.9375 7.5 9.9375C6.74167 9.9375 5.9901 10.0289 5.24531 10.2117C4.50052 10.3945 3.7625 10.6687 3.03125 11.0344C2.90937 11.1021 2.8112 11.1969 2.73672 11.3188C2.66224 11.4406 2.625 11.576 2.625 11.725V12.375ZM7.5 5.875C7.94688 5.875 8.32943 5.71589 8.64766 5.39766C8.96589 5.07943 9.125 4.69688 9.125 4.25C9.125 3.80312 8.96589 3.42057 8.64766 3.10234C8.32943 2.78411 7.94688 2.625 7.5 2.625C7.05312 2.625 6.67057 2.78411 6.35234 3.10234C6.03411 3.42057 5.875 3.80312 5.875 4.25C5.875 4.69688 6.03411 5.07943 6.35234 5.39766C6.67057 5.71589 7.05312 5.875 7.5 5.875Z" fill="white" stroke="#BFBFBF" stroke-opacity="0.35" stroke-width="0.025"/>
</svg>
