<svg width="70" height="70" viewBox="0 0 70 70" fill="none" xmlns="http://www.w3.org/2000/svg">
<path d="M13.475 52.85C16.45 50.575 19.775 48.7812 23.45 47.4688C27.125 46.1562 30.975 45.5 35 45.5C39.025 45.5 42.875 46.1562 46.55 47.4688C50.225 48.7812 53.55 50.575 56.525 52.85C58.5667 50.4583 60.1563 47.7458 61.2938 44.7125C62.4313 41.6792 63 38.4417 63 35C63 27.2417 60.2729 20.6354 54.8188 15.1813C49.3646 9.72708 42.7583 7 35 7C27.2417 7 20.6354 9.72708 15.1813 15.1813C9.72708 20.6354 7 27.2417 7 35C7 38.4417 7.56875 41.6792 8.70625 44.7125C9.84375 47.7458 11.4333 50.4583 13.475 52.85ZM35 38.5C31.5583 38.5 28.6563 37.3187 26.2938 34.9562C23.9313 32.5937 22.75 29.6917 22.75 26.25C22.75 22.8083 23.9313 19.9063 26.2938 17.5438C28.6563 15.1813 31.5583 14 35 14C38.4417 14 41.3437 15.1813 43.7062 17.5438C46.0687 19.9063 47.25 22.8083 47.25 26.25C47.25 29.6917 46.0687 32.5937 43.7062 34.9562C41.3437 37.3187 38.4417 38.5 35 38.5ZM35 70C30.1583 70 25.6083 69.0813 21.35 67.2438C17.0917 65.4063 13.3875 62.9125 10.2375 59.7625C7.0875 56.6125 4.59375 52.9083 2.75625 48.65C0.91875 44.3917 0 39.8417 0 35C0 30.1583 0.91875 25.6083 2.75625 21.35C4.59375 17.0917 7.0875 13.3875 10.2375 10.2375C13.3875 7.0875 17.0917 4.59375 21.35 2.75625C25.6083 0.91875 30.1583 0 35 0C39.8417 0 44.3917 0.91875 48.65 2.75625C52.9083 4.59375 56.6125 7.0875 59.7625 10.2375C62.9125 13.3875 65.4063 17.0917 67.2438 21.35C69.0813 25.6083 70 30.1583 70 35C70 39.8417 69.0813 44.3917 67.2438 48.65C65.4063 52.9083 62.9125 56.6125 59.7625 59.7625C56.6125 62.9125 52.9083 65.4063 48.65 67.2438C44.3917 69.0813 39.8417 70 35 70Z" fill="black"/>
</svg>
